<mxfile host="app.diagrams.net" modified="2024-06-24T22:55:06.571Z" agent="Mozilla/5.0 (Windows NT 10.0; Win64; x64) AppleWebKit/537.36 (KHTML, like Gecko) Chrome/126.0.0.0 Safari/537.36" etag="9qlraWvPFlUrml0VPm_-" version="24.6.2" type="device" pages="2">
  <diagram name="overview" id="zQSaH0TyiXaORAh1LeJu">
    <mxGraphModel dx="793" dy="1106" grid="1" gridSize="10" guides="1" tooltips="1" connect="1" arrows="1" fold="1" page="1" pageScale="1" pageWidth="827" pageHeight="1169" math="0" shadow="0">
      <root>
        <mxCell id="0" />
        <mxCell id="1" parent="0" />
        <mxCell id="0nvs__IUVSbHtU1zU3zM-5" style="edgeStyle=orthogonalEdgeStyle;rounded=0;orthogonalLoop=1;jettySize=auto;html=1;entryX=0;entryY=0.5;entryDx=0;entryDy=0;exitX=0.5;exitY=0;exitDx=0;exitDy=0;" parent="1" source="0nvs__IUVSbHtU1zU3zM-1" target="0nvs__IUVSbHtU1zU3zM-2" edge="1">
          <mxGeometry relative="1" as="geometry" />
        </mxCell>
        <mxCell id="0nvs__IUVSbHtU1zU3zM-7" value="/api/project/authorizer" style="edgeLabel;html=1;align=center;verticalAlign=middle;resizable=0;points=[];" parent="0nvs__IUVSbHtU1zU3zM-5" vertex="1" connectable="0">
          <mxGeometry x="0.2476" y="1" relative="1" as="geometry">
            <mxPoint as="offset" />
          </mxGeometry>
        </mxCell>
        <mxCell id="0nvs__IUVSbHtU1zU3zM-6" style="edgeStyle=orthogonalEdgeStyle;rounded=0;orthogonalLoop=1;jettySize=auto;html=1;entryX=0;entryY=0.5;entryDx=0;entryDy=0;" parent="1" source="0nvs__IUVSbHtU1zU3zM-1" target="0nvs__IUVSbHtU1zU3zM-3" edge="1">
          <mxGeometry relative="1" as="geometry" />
        </mxCell>
        <mxCell id="0nvs__IUVSbHtU1zU3zM-9" value="/api/project/sort" style="edgeLabel;html=1;align=center;verticalAlign=middle;resizable=0;points=[];" parent="0nvs__IUVSbHtU1zU3zM-6" vertex="1" connectable="0">
          <mxGeometry x="0.0756" y="-1" relative="1" as="geometry">
            <mxPoint as="offset" />
          </mxGeometry>
        </mxCell>
        <mxCell id="0nvs__IUVSbHtU1zU3zM-11" style="edgeStyle=orthogonalEdgeStyle;rounded=0;orthogonalLoop=1;jettySize=auto;html=1;entryX=0;entryY=0.5;entryDx=0;entryDy=0;exitX=0.5;exitY=1;exitDx=0;exitDy=0;" parent="1" source="0nvs__IUVSbHtU1zU3zM-1" target="0nvs__IUVSbHtU1zU3zM-10" edge="1">
          <mxGeometry relative="1" as="geometry" />
        </mxCell>
        <mxCell id="0nvs__IUVSbHtU1zU3zM-12" value="/api/project/project_manager" style="edgeLabel;html=1;align=center;verticalAlign=middle;resizable=0;points=[];" parent="0nvs__IUVSbHtU1zU3zM-11" vertex="1" connectable="0">
          <mxGeometry x="0.4272" relative="1" as="geometry">
            <mxPoint x="-16" as="offset" />
          </mxGeometry>
        </mxCell>
        <mxCell id="0nvs__IUVSbHtU1zU3zM-14" style="edgeStyle=orthogonalEdgeStyle;rounded=0;orthogonalLoop=1;jettySize=auto;html=1;entryX=0;entryY=0.5;entryDx=0;entryDy=0;exitX=0.5;exitY=1;exitDx=0;exitDy=0;" parent="1" source="0nvs__IUVSbHtU1zU3zM-1" target="0nvs__IUVSbHtU1zU3zM-13" edge="1">
          <mxGeometry relative="1" as="geometry" />
        </mxCell>
        <mxCell id="0nvs__IUVSbHtU1zU3zM-15" value="/api/project/email_sender" style="edgeLabel;html=1;align=center;verticalAlign=middle;resizable=0;points=[];" parent="0nvs__IUVSbHtU1zU3zM-14" vertex="1" connectable="0">
          <mxGeometry x="0.3286" relative="1" as="geometry">
            <mxPoint x="31" as="offset" />
          </mxGeometry>
        </mxCell>
        <mxCell id="0nvs__IUVSbHtU1zU3zM-17" style="edgeStyle=orthogonalEdgeStyle;rounded=0;orthogonalLoop=1;jettySize=auto;html=1;entryX=0;entryY=0.5;entryDx=0;entryDy=0;exitX=0.5;exitY=0;exitDx=0;exitDy=0;" parent="1" source="0nvs__IUVSbHtU1zU3zM-1" target="0nvs__IUVSbHtU1zU3zM-16" edge="1">
          <mxGeometry relative="1" as="geometry" />
        </mxCell>
        <mxCell id="0nvs__IUVSbHtU1zU3zM-18" value="/" style="edgeLabel;html=1;align=center;verticalAlign=middle;resizable=0;points=[];" parent="0nvs__IUVSbHtU1zU3zM-17" vertex="1" connectable="0">
          <mxGeometry x="0.4772" relative="1" as="geometry">
            <mxPoint as="offset" />
          </mxGeometry>
        </mxCell>
        <mxCell id="0nvs__IUVSbHtU1zU3zM-1" value="API Gateway" style="whiteSpace=wrap;html=1;aspect=fixed;" parent="1" vertex="1">
          <mxGeometry x="140" y="490" width="80" height="80" as="geometry" />
        </mxCell>
        <mxCell id="0nvs__IUVSbHtU1zU3zM-2" value="Authorizer" style="whiteSpace=wrap;html=1;aspect=fixed;" parent="1" vertex="1">
          <mxGeometry x="460" y="370" width="80" height="80" as="geometry" />
        </mxCell>
        <mxCell id="0nvs__IUVSbHtU1zU3zM-3" value="Node Sort API&lt;div&gt;Lambda&lt;/div&gt;" style="whiteSpace=wrap;html=1;aspect=fixed;" parent="1" vertex="1">
          <mxGeometry x="460" y="490" width="80" height="80" as="geometry" />
        </mxCell>
        <mxCell id="0nvs__IUVSbHtU1zU3zM-10" value="Project Manager" style="whiteSpace=wrap;html=1;aspect=fixed;" parent="1" vertex="1">
          <mxGeometry x="460" y="600" width="80" height="80" as="geometry" />
        </mxCell>
        <mxCell id="0nvs__IUVSbHtU1zU3zM-13" value="Email Sender" style="whiteSpace=wrap;html=1;aspect=fixed;" parent="1" vertex="1">
          <mxGeometry x="460" y="720" width="80" height="80" as="geometry" />
        </mxCell>
        <mxCell id="0nvs__IUVSbHtU1zU3zM-16" value="FrontEnd&lt;div&gt;(Commodore Landing)&lt;/div&gt;" style="whiteSpace=wrap;html=1;aspect=fixed;" parent="1" vertex="1">
          <mxGeometry x="460" y="250" width="80" height="80" as="geometry" />
        </mxCell>
      </root>
    </mxGraphModel>
  </diagram>
  <diagram id="mcSdEaW9QnKKSbBvgui3" name="sequence/emailsender">
    <mxGraphModel dx="1430" dy="763" grid="1" gridSize="10" guides="1" tooltips="1" connect="1" arrows="1" fold="1" page="1" pageScale="1" pageWidth="827" pageHeight="1169" math="0" shadow="0">
      <root>
        <mxCell id="0" />
        <mxCell id="1" parent="0" />
        <mxCell id="6U-ekvWrDaK47FkRoR7e-1" value="Collect user email" style="rounded=0;whiteSpace=wrap;html=1;" vertex="1" parent="1">
          <mxGeometry x="100" y="190" width="120" height="60" as="geometry" />
        </mxCell>
        <mxCell id="6U-ekvWrDaK47FkRoR7e-2" value="" style="endArrow=none;html=1;rounded=0;" edge="1" parent="1">
          <mxGeometry width="50" height="50" relative="1" as="geometry">
            <mxPoint x="280" y="1000" as="sourcePoint" />
            <mxPoint x="280" y="80" as="targetPoint" />
          </mxGeometry>
        </mxCell>
        <mxCell id="6U-ekvWrDaK47FkRoR7e-5" value="USER" style="text;html=1;align=center;verticalAlign=middle;resizable=0;points=[];autosize=1;strokeColor=none;fillColor=none;" vertex="1" parent="1">
          <mxGeometry x="130" y="58" width="60" height="30" as="geometry" />
        </mxCell>
        <mxCell id="6U-ekvWrDaK47FkRoR7e-6" value="EMAIL SENDER" style="text;html=1;align=center;verticalAlign=middle;resizable=0;points=[];autosize=1;strokeColor=none;fillColor=none;" vertex="1" parent="1">
          <mxGeometry x="345" y="50" width="110" height="30" as="geometry" />
        </mxCell>
        <mxCell id="6U-ekvWrDaK47FkRoR7e-15" value="" style="edgeStyle=orthogonalEdgeStyle;rounded=0;orthogonalLoop=1;jettySize=auto;html=1;" edge="1" parent="1" source="6U-ekvWrDaK47FkRoR7e-8" target="6U-ekvWrDaK47FkRoR7e-14">
          <mxGeometry relative="1" as="geometry" />
        </mxCell>
        <mxCell id="6U-ekvWrDaK47FkRoR7e-21" value="" style="edgeStyle=orthogonalEdgeStyle;rounded=0;orthogonalLoop=1;jettySize=auto;html=1;" edge="1" parent="1" source="6U-ekvWrDaK47FkRoR7e-8" target="6U-ekvWrDaK47FkRoR7e-20">
          <mxGeometry relative="1" as="geometry" />
        </mxCell>
        <mxCell id="6U-ekvWrDaK47FkRoR7e-31" value="put email on QUEUE" style="edgeLabel;html=1;align=center;verticalAlign=middle;resizable=0;points=[];" vertex="1" connectable="0" parent="6U-ekvWrDaK47FkRoR7e-21">
          <mxGeometry x="0.0404" relative="1" as="geometry">
            <mxPoint as="offset" />
          </mxGeometry>
        </mxCell>
        <mxCell id="6U-ekvWrDaK47FkRoR7e-8" value="receive user&#39;s email" style="rounded=0;whiteSpace=wrap;html=1;" vertex="1" parent="1">
          <mxGeometry x="340" y="400" width="120" height="60" as="geometry" />
        </mxCell>
        <mxCell id="6U-ekvWrDaK47FkRoR7e-11" style="edgeStyle=orthogonalEdgeStyle;rounded=0;orthogonalLoop=1;jettySize=auto;html=1;entryX=0.5;entryY=0;entryDx=0;entryDy=0;" edge="1" parent="1" source="6U-ekvWrDaK47FkRoR7e-10" target="6U-ekvWrDaK47FkRoR7e-8">
          <mxGeometry relative="1" as="geometry" />
        </mxCell>
        <mxCell id="6U-ekvWrDaK47FkRoR7e-12" value="&lt;font style=&quot;font-size: 12px;&quot;&gt;send contact request&lt;/font&gt;" style="edgeLabel;html=1;align=center;verticalAlign=middle;resizable=0;points=[];" vertex="1" connectable="0" parent="6U-ekvWrDaK47FkRoR7e-11">
          <mxGeometry x="-0.1821" y="-1" relative="1" as="geometry">
            <mxPoint as="offset" />
          </mxGeometry>
        </mxCell>
        <mxCell id="6U-ekvWrDaK47FkRoR7e-10" value="Prepare request to API containing user&#39;s email" style="rounded=0;whiteSpace=wrap;html=1;" vertex="1" parent="1">
          <mxGeometry x="100" y="290" width="120" height="60" as="geometry" />
        </mxCell>
        <mxCell id="6U-ekvWrDaK47FkRoR7e-27" value="" style="edgeStyle=orthogonalEdgeStyle;rounded=0;orthogonalLoop=1;jettySize=auto;html=1;" edge="1" parent="1" source="6U-ekvWrDaK47FkRoR7e-14" target="6U-ekvWrDaK47FkRoR7e-26">
          <mxGeometry relative="1" as="geometry" />
        </mxCell>
        <mxCell id="6U-ekvWrDaK47FkRoR7e-38" value="send response" style="edgeLabel;html=1;align=center;verticalAlign=middle;resizable=0;points=[];" vertex="1" connectable="0" parent="6U-ekvWrDaK47FkRoR7e-27">
          <mxGeometry x="-0.2086" y="1" relative="1" as="geometry">
            <mxPoint x="-12" y="-1" as="offset" />
          </mxGeometry>
        </mxCell>
        <mxCell id="6U-ekvWrDaK47FkRoR7e-14" value="Store user email on db" style="rounded=0;whiteSpace=wrap;html=1;" vertex="1" parent="1">
          <mxGeometry x="340" y="540" width="120" height="60" as="geometry" />
        </mxCell>
        <mxCell id="6U-ekvWrDaK47FkRoR7e-34" value="" style="edgeStyle=orthogonalEdgeStyle;rounded=0;orthogonalLoop=1;jettySize=auto;html=1;" edge="1" parent="1" source="6U-ekvWrDaK47FkRoR7e-20" target="6U-ekvWrDaK47FkRoR7e-33">
          <mxGeometry relative="1" as="geometry" />
        </mxCell>
        <mxCell id="6U-ekvWrDaK47FkRoR7e-20" value="consume message from queue" style="rounded=0;whiteSpace=wrap;html=1;" vertex="1" parent="1">
          <mxGeometry x="610" y="400" width="120" height="60" as="geometry" />
        </mxCell>
        <mxCell id="6U-ekvWrDaK47FkRoR7e-24" value="Receives email message containing my info" style="rounded=0;whiteSpace=wrap;html=1;" vertex="1" parent="1">
          <mxGeometry x="80" y="680" width="120" height="60" as="geometry" />
        </mxCell>
        <mxCell id="6U-ekvWrDaK47FkRoR7e-26" value="Receive message saying that the email should arrive soon" style="rounded=0;whiteSpace=wrap;html=1;" vertex="1" parent="1">
          <mxGeometry x="100" y="540" width="120" height="60" as="geometry" />
        </mxCell>
        <mxCell id="6U-ekvWrDaK47FkRoR7e-28" value="EMAIL WORKER" style="text;html=1;align=center;verticalAlign=middle;resizable=0;points=[];autosize=1;strokeColor=none;fillColor=none;" vertex="1" parent="1">
          <mxGeometry x="610" y="50" width="120" height="30" as="geometry" />
        </mxCell>
        <mxCell id="6U-ekvWrDaK47FkRoR7e-29" value="" style="endArrow=none;html=1;rounded=0;" edge="1" parent="1">
          <mxGeometry width="50" height="50" relative="1" as="geometry">
            <mxPoint x="520" y="1000" as="sourcePoint" />
            <mxPoint x="520" y="80" as="targetPoint" />
          </mxGeometry>
        </mxCell>
        <mxCell id="6U-ekvWrDaK47FkRoR7e-36" value="" style="edgeStyle=orthogonalEdgeStyle;rounded=0;orthogonalLoop=1;jettySize=auto;html=1;entryX=1;entryY=0.5;entryDx=0;entryDy=0;exitX=0.5;exitY=1;exitDx=0;exitDy=0;" edge="1" parent="1" source="6U-ekvWrDaK47FkRoR7e-33" target="6U-ekvWrDaK47FkRoR7e-24">
          <mxGeometry relative="1" as="geometry">
            <mxPoint x="670" y="680" as="targetPoint" />
          </mxGeometry>
        </mxCell>
        <mxCell id="6U-ekvWrDaK47FkRoR7e-33" value="retrieve my relevant info" style="rounded=0;whiteSpace=wrap;html=1;" vertex="1" parent="1">
          <mxGeometry x="610" y="610" width="120" height="60" as="geometry" />
        </mxCell>
      </root>
    </mxGraphModel>
  </diagram>
</mxfile>
